<svg xmlns:dc="http://purl.org/dc/elements/1.1/" xmlns:cc="http://creativecommons.org/ns#" xmlns:rdf="http://www.w3.org/1999/02/22-rdf-syntax-ns#" xmlns:svg="http://www.w3.org/2000/svg" xmlns="http://www.w3.org/2000/svg" xmlns:sodipodi="http://sodipodi.sourceforge.net/DTD/sodipodi-0.dtd" xmlns:inkscape="http://www.inkscape.org/namespaces/inkscape" sodipodi:docname="logo2.....svg" inkscape:version="1.0 (4035a4fb49, 2020-05-01)" id="svg8" version="1.1" viewBox="14.52 29.16 61.87 46.3">
  <defs id="defs2"/>
  <sodipodi:namedview inkscape:window-maximized="1" inkscape:window-y="-8" inkscape:window-x="-8" inkscape:window-height="837" inkscape:window-width="1600" showgrid="false" inkscape:document-rotation="0" inkscape:current-layer="layer1" inkscape:document-units="mm" inkscape:cy="360.78582" inkscape:cx="842.41055" inkscape:zoom="0.49497475" inkscape:pageshadow="2" inkscape:pageopacity="0.0" borderopacity="1.0" bordercolor="#666666" pagecolor="#ffffff" id="base"/>
  <metadata id="metadata5">
    <rdf:RDF>
      <cc:Work rdf:about="">
        <dc:format>image/svg+xml</dc:format>
        <dc:type rdf:resource="http://purl.org/dc/dcmitype/StillImage"/>
        <dc:title/>
      </cc:Work>
    </rdf:RDF>
  </metadata>
  <g id="layer1" inkscape:groupmode="layer" inkscape:label="Capa 1">
    <g transform="matrix(0.47854419,0,0,0.43974904,-16.984286,-18.408476)" id="g878">
      <g id="g872" transform="matrix(0.91135344,0,0,0.8865821,34.531675,15.986988)">
        <path style="fill:#000000;fill-opacity:1;stroke:none;stroke-width:0.216631px;stroke-linecap:butt;stroke-linejoin:miter;stroke-opacity:1" d="m 46.697585,133.76598 -3.304732,-0.0214 -1.447317,0.79324 -1.061376,0.92186 -0.241228,0.25726 0.07235,0.15008 1.688558,-0.0643 1.085498,0.3216 1.592051,0.62171 1.206108,1.11481 0.410084,0.68603 -0.02406,11.53403 -0.482444,0.42877 -0.482437,0.34302 v 0.51453 l 0.28946,0.60028 h 0.289466 l 0.192977,0.42877 0.09649,0.25727 -0.09649,10.71933 -0.67542,1.28632 -0.675415,0.51452 -0.868392,0.42877 -1.254353,0.34302 h -1.640307 l -0.868399,-0.17151 v 0.60028 l 0.868399,0.60031 1.254359,0.77179 1.447311,0.68604 2.508706,-0.0858 1.061369,-0.1715 1.061376,0.42877 0.771903,1.45782 0.675421,0.0858 0.771909,-0.0858 0.09649,-0.51452 1.254347,-1.11481 0.578932,-0.34302 h 0.578926 l 0.771909,0.34302 0.482437,0.42877 0.868405,0.25726 8.490991,0.0858 2.122745,-0.51453 1.447331,-0.17151 0.771903,0.51452 h 1.254353 l 0.289466,-1.28631 0.09648,-1.45784 1.350842,-2.31538 0.482437,-3.08717 -0.09649,-3.08717 -2.219227,-1.8866 -1.44733,-0.34301 0.578932,1.1148 0.192971,1.7151 -0.675415,2.40112 -1.73679,2.05811 -3.280602,1.37207 -4.052513,0.68604 -3.184139,-0.60027 -1.833279,-0.9433 -0.385948,-1.80086 0.09649,-8.74696 0.868385,-0.0858 4.727958,0.34302 1.640296,1.11481 0.482449,1.28632 0.482437,0.9433 0.77191,-0.25726 1.447324,-0.9433 0.192977,-2.6584 0.09649,-5.40256 -1.833285,-1.62934 H 62.01519 l -0.385948,0.85755 -0.77191,1.45782 -1.640301,0.9433 -3.666576,0.17152 -2.026263,-0.17152 0.192984,-10.11904 1.350835,-1.37207 1.736809,-0.42878 2.991143,-0.0857 2.122745,0.42877 2.02625,0.34303 2.122745,1.20056 1.929767,2.14387 0.09649,1.02905 0.578932,0.34302 0.578932,-1.11481 0.578926,-3.34443 -0.28946,-1.97236 -0.578932,-0.77179 -0.0965,-0.9433 0.868398,-0.77179 0.675421,-0.68604 -0.09649,-0.34302 -2.508699,0.68604 h -4.534956 l -1.061369,-0.42878 -5.982305,-0.0858 -0.771897,0.51453 -1.640301,0.0858 -0.289473,0.51452 h -1.350835 l -1.350842,-1.97236 -0.771897,-0.42877 -0.964886,1.11481 -0.48245,0.9433 -0.385949,0.34302 -0.578932,0.17151 h -0.578925 z" id="path38"/>
        <path style="fill:#000000;fill-opacity:1;stroke:none;stroke-width:0.230923px;stroke-linecap:butt;stroke-linejoin:miter;stroke-opacity:1" d="m 37.444775,170.48978 -2.952446,2.39638 0.755284,0.20541 h 1.991162 l 1.716542,1.09549 1.510536,1.64321 v 13.14587 l -0.82394,0.41081 0.137338,1.09548 0.549289,0.41081 0.137313,13.35127 -0.892597,1.84863 -3.50171,0.95855 -1.716536,-0.27385 0.137319,0.75313 1.785199,1.43783 0.82394,0.41081 1.167222,0.34235 3.570392,-0.27389 8.58263,0.20542 1.441886,-0.41082 1.167228,-1.02701 0.617971,-1.0955 -0.961259,-0.34232 -1.991168,-0.0685 -1.853849,-1.02704 -0.823947,-1.02701 -0.480626,-2.73873 0.06866,-5.13509 6.522819,-6.64139 1.029909,-0.41081 0.755284,0.27386 0.755264,0.95855 3.570379,13.55668 1.716524,3.28646 2.265813,1.71169 3.707704,1.30089 3.982336,-0.47927 3.295741,-1.78017 1.510536,-2.32789 0.274657,-2.53334 v -1.23241 l -0.06866,-0.41081 -3.089759,1.98557 h -2.2658 l -2.677789,-1.09548 -1.785199,-1.71171 -1.785199,-6.77833 -2.265794,-5.1351 -1.64788,-2.12252 -2.059825,-1.98558 11.809709,-11.16026 2.540457,-0.75316 1.785193,-0.41081 -0.06866,-0.82162 -2.609139,-1.5063 -2.471788,-0.20539 -10.848469,0.0685 -1.922506,0.95854 -1.029909,1.23241 v 0.41082 l 1.441879,0.54776 1.304573,0.34232 0.274626,0.82163 0.137338,0.82162 -0.06868,0.68467 -0.274632,0.82162 -0.82394,0.95856 -9.955866,9.92785 H 47.94991 l -0.205995,-0.27388 -0.137319,-1.16394 0.41197,-10.81795 1.716537,-1.98557 2.609119,-0.47928 1.579199,-0.27388 -1.029922,-1.23241 -2.746445,-1.57478 -3.570367,0.27389 z" id="path40"/>
      </g>
      <path id="path869" d="m 138.59619,108.47761 -33.95689,86.43696 h 53.68861 l 0.11472,18.25965 26.61487,-0.11857 -0.008,-18.12572 9.81537,-0.0838 -0.0812,-24.56545 -9.81537,-0.0838 0.0812,-22.63709 h -26.76926 l 0.24336,22.80478 h -16.62973 l 23.76779,-61.79089 z" style="fill:#000000;stroke:#000000;stroke-width:0.260469px;stroke-linecap:butt;stroke-linejoin:miter;stroke-opacity:1"/>
    </g>
  </g>
</svg>