<?xml version="1.0" standalone="no"?><svg xmlns="http://www.w3.org/2000/svg" viewBox="0 0 1440 320" preserveAspectRatio="none"><path fill="#fffa73" fill-opacity="1" d="M0,96L24,122.7C48,149,96,203,144,234.7C192,267,240,277,288,250.7C336,224,384,160,432,160C480,160,528,224,576,234.7C624,245,672,203,720,170.7C768,139,816,117,864,128C912,139,960,181,1008,192C1056,203,1104,181,1152,149.3C1200,117,1248,75,1296,90.7C1344,107,1392,181,1416,218.7L1440,256L1440,0L1416,0C1392,0,1344,0,1296,0C1248,0,1200,0,1152,0C1104,0,1056,0,1008,0C960,0,912,0,864,0C816,0,768,0,720,0C672,0,624,0,576,0C528,0,480,0,432,0C384,0,336,0,288,0C240,0,192,0,144,0C96,0,48,0,24,0L0,0Z"></path></svg>